<svg id="Layer_1" data-name="Layer 1" xmlns="http://www.w3.org/2000/svg" viewBox="0 0 216.64 216.53"><defs><style>.cls-1,.cls-2{fill:none;stroke-linecap:square;stroke-miterlimit:10;}.cls-1{stroke:#ea2027;stroke-width:0.53px;}.cls-2{stroke:#0652dd;stroke-width:0.35px;stroke-dasharray:5 5;}</style></defs><title>box template</title><polyline class="cls-1" points="0.38 72.27 28.73 43.91 44.03 43.91 72.38 72.27 72.38 0.27 144.38 0.27 144.38 72.27 172.72 43.91 188.03 43.91 216.38 72.27 216.38 144.26 188.03 172.6 172.72 172.6 144.38 144.26 144.38 216.26 72.38 216.26 72.38 144.26 44.03 172.6 28.73 172.6 0.38 144.26 0.38 72.27"/><line class="cls-2" x1="0.37" y1="72.26" x2="72.37" y2="72.26"/><line class="cls-2" x1="144.37" y1="72.26" x2="216.37" y2="72.26"/><line class="cls-2" x1="216.37" y1="144.26" x2="144.37" y2="144.26"/><line class="cls-2" x1="72.37" y1="144.26" x2="0.37" y2="144.26"/><polyline class="cls-2" points="72.38 72.27 144.38 72.27 144.38 144.26 72.38 144.26 72.38 72.27"/></svg>